<svg width="448.1" height="455.3" xmlns="http://www.w3.org/2000/svg"><path d="M398.2 347.3c95.9-122.1 17.2-233.1 17.2-233.1C460.8 200 374 284.7 374 284.7c105-171.5-60.5-271.5-60.5-271.5 96.9 72.7-10.1 190.7-10.1 190.7C389.2 362.3 234.8 434 234.8 434l-2.2-85.7 34.5 36.2-24.2-47.4 62.6-9.1-62.6-9.1 20.2-55.5-31.4 45.9-7.9-306.9V0v1-1 2.4l-7.9 306.9-31.4-45.9 20.2 55.5-62.6 9.1 62.6 9.1-24.2 47.4 34.5-36.2-2.2 85.7s-154.4-71.7-68.6-230.1c0 0-107-118.1-10.1-190.7 0 0-165.5 99.9-60.5 271.5 0 0-86.8-84.8-41.4-170.5 0 0-78.7 111 17.2 233.1 0 0-26.2-16.1-49.4-77.7 0 0 16.9 183.3 222 185.7h4.1c205-2.4 222-185.7 222-185.7-23.6 61.5-49.9 77.7-49.9 77.7z"/></svg>